HIERARCHY
ROOT Hips
{
	OFFSET 305.588898 92.559578 -272.186401
	CHANNELS 6 Xposition Yposition Zposition Zrotation Yrotation Xrotation 
	JOINT LeftUpLeg
	{
		OFFSET 0.103462 1.857825 10.548491
		CHANNELS 3 Zrotation Yrotation Xrotation
		JOINT LeftLeg
		{
			OFFSET 43.500000 -0.000038 -0.000006
			CHANNELS 3 Zrotation Yrotation Xrotation
			JOINT LeftFoot
			{
				OFFSET 42.372196 0.000034 -0.000012
				CHANNELS 3 Zrotation Yrotation Xrotation
				JOINT LeftToe
				{
					OFFSET 17.299999 -0.000001 -0.000008
					CHANNELS 3 Zrotation Yrotation Xrotation
					End Site
					{
						OFFSET 0.000000 0.000000 0.000000
					}
				}
			}
		}
	}
	JOINT RightUpLeg
	{
		OFFSET 0.103456 1.857821 -10.548490
		CHANNELS 3 Zrotation Yrotation Xrotation
		JOINT RightLeg
		{
			OFFSET 43.500038 -0.000011 0.000011
			CHANNELS 3 Zrotation Yrotation Xrotation
			JOINT RightFoot
			{
				OFFSET 42.372265 0.000004 0.000029
				CHANNELS 3 Zrotation Yrotation Xrotation
				JOINT RightToe
				{
					OFFSET 17.299988 -0.000007 0.000004
					CHANNELS 3 Zrotation Yrotation Xrotation
					End Site
					{
						OFFSET 0.000000 0.000000 0.000000
					}
				}
			}
		}
	}
	JOINT Spine
	{
		OFFSET 6.901963 -2.603729 -0.000012
		CHANNELS 3 Zrotation Yrotation Xrotation
		JOINT Spine1
		{
			OFFSET 12.588106 0.000010 0.000003
			CHANNELS 3 Zrotation Yrotation Xrotation
			JOINT Spine2
			{
				OFFSET 12.343199 -0.000001 -0.000002
				CHANNELS 3 Zrotation Yrotation Xrotation
				JOINT Neck
				{
					OFFSET 25.832895 -0.000006 0.000023
					CHANNELS 3 Zrotation Yrotation Xrotation
					JOINT Head
					{
						OFFSET 11.766605 0.000011 -0.000027
						CHANNELS 3 Zrotation Yrotation Xrotation
						End Site
						{
							OFFSET 0.000000 0.000000 0.000000
						}
					}
				}
				JOINT LeftShoulder
				{
					OFFSET 19.745903 -1.480368 6.000127
					CHANNELS 3 Zrotation Yrotation Xrotation
					JOINT LeftArm
					{
						OFFSET 11.284108 0.000010 -0.000010
						CHANNELS 3 Zrotation Yrotation Xrotation
						JOINT LeftForeArm
						{
							OFFSET 33.000069 0.000000 0.000030
							CHANNELS 3 Zrotation Yrotation Xrotation
							JOINT LeftHand
							{
								OFFSET 25.199997 0.000019 0.000001
								CHANNELS 3 Zrotation Yrotation Xrotation
								End Site
								{
									OFFSET 0.000000 0.000000 0.000000
								}
							}
						}
					}
				}
				JOINT RightShoulder
				{
					OFFSET 19.746101 -1.480371 -6.000072
					CHANNELS 3 Zrotation Yrotation Xrotation
					JOINT RightArm
					{
						OFFSET 11.284140 -0.000007 -0.000004
						CHANNELS 3 Zrotation Yrotation Xrotation
						JOINT RightForeArm
						{
							OFFSET 33.000080 0.000016 -0.000002
							CHANNELS 3 Zrotation Yrotation Xrotation
							JOINT RightHand
							{
								OFFSET 25.199766 0.000146 0.000422
								CHANNELS 3 Zrotation Yrotation Xrotation
								End Site
								{
									OFFSET 0.000000 0.000000 0.000000
								}
							}
						}
					}
				}
			}
		}
	}
}
MOTION
Frames: 11
Frame Time: 0.033333
305.588898 92.559578 -272.186401 90.758502 5.849394 86.481349 -173.745314 0.036302 -174.222280 -9.057726 -2.494915 -6.882274 74.749727 4.387457 -2.005426 21.454551 0.003089 0.000000 -173.922680 2.135599 -179.508163 -11.304672 4.179032 7.576224 79.382494 -5.375837 0.325107 21.454557 -0.003111 -0.000018 6.669279 -0.186729 0.040734 3.328282 -0.356568 0.082236 3.010183 -0.355949 0.084373 6.259146 -7.621623 -8.912898 -16.638411 16.837987 -16.259754 -31.712964 -87.963561 -150.196229 -10.387140 9.430325 -15.339053 -23.909624 -16.928624 1.255182 17.158029 -0.083505 43.717360 -90.667653 82.175112 91.730615 -10.985772 -6.031872 14.917685 -21.531307 15.898968 -1.169136 8.720714 2.789582 -14.274452 
305.567993 92.558517 -272.162109 90.768194 5.835628 86.506730 -173.745314 0.030692 -174.225572 -9.057727 -2.488902 -6.865441 74.753968 4.372734 -2.014900 21.454550 0.003093 -0.000000 -173.915495 2.130696 -179.509515 -11.301366 4.186115 7.592459 79.400710 -5.388498 0.319380 21.454560 -0.003104 -0.000016 6.669286 -0.186726 0.040741 3.325616 -0.356560 0.078975 3.007518 -0.355954 0.081133 6.279740 -7.632933 -8.903041 -16.622078 16.849911 -16.251242 -31.982303 -87.963752 -149.927529 -10.387142 9.409045 -15.373470 -23.922995 -16.916008 1.255187 17.147284 -0.142067 43.642266 -90.648884 82.181239 91.749023 -10.979790 -6.042717 14.926600 -21.536440 15.909722 -1.169135 8.714793 2.774939 -14.301959 
305.498199 92.555557 -272.084412 90.799763 5.791069 86.599115 -173.745314 0.007995 -174.236609 -9.054929 -2.472394 -6.804351 74.765122 4.321123 -2.043220 21.454551 0.003095 -0.000000 -173.888707 2.108393 -179.520294 -11.283941 4.204507 7.655607 79.454498 -5.435978 0.304175 21.454560 -0.003100 -0.000016 6.664744 -0.186734 0.040741 3.316550 -0.360344 0.065343 2.998452 -0.359802 0.067511 6.349836 -7.643385 -8.876892 -16.577607 16.857255 -16.216466 -32.293729 -87.959818 -149.616837 -10.387141 9.363442 -15.416420 -23.961939 -16.932049 1.255180 17.108671 -0.273664 43.393561 -90.643468 82.198451 91.752923 -10.957890 -6.069299 14.997649 -21.558821 15.910287 -1.169133 8.697355 2.746831 -14.424376 
305.426208 92.552856 -272.004700 90.831223 5.745117 86.688208 -173.742800 -0.016800 -174.262578 -9.046308 -2.455287 -6.736377 74.773837 4.264897 -2.070599 21.454553 0.003096 -0.000000 -173.862165 2.083893 -179.535019 -11.265465 4.221045 7.719533 79.506476 -5.483943 0.289007 21.454555 -0.003120 -0.000019 6.659851 -0.186732 0.040743 3.306752 -0.367208 0.054940 2.988665 -0.366734 0.057160 6.411925 -7.615400 -8.842523 -16.542493 16.848250 -16.164732 -32.211398 -87.948719 -149.700002 -10.387143 9.328024 -15.451343 -24.009112 -16.959604 1.255188 17.138550 -0.249937 43.417132 -90.729733 82.206709 91.665421 -10.943880 -6.086043 15.060806 -21.573895 15.895440 -1.169142 8.686428 2.737090 -14.534019 
305.352112 92.550056 -271.924286 90.860415 5.698643 86.759003 -173.735683 -0.045103 -174.309638 -9.032999 -2.440092 -6.666545 74.782150 4.207446 -2.097863 21.454551 0.003096 0.000000 -173.841456 2.058703 -179.533244 -11.255912 4.233547 7.763091 79.559833 -5.518774 0.268815 21.454558 -0.003112 -0.000019 6.654725 -0.186730 0.040748 3.296537 -0.374243 0.052420 2.978428 -0.373797 0.054682 6.452540 -7.583852 -8.816015 -16.523624 16.815361 -16.116125 -32.109375 -87.937682 -149.802728 -10.387141 9.296899 -15.470208 -24.048295 -16.990210 1.255186 17.191912 -0.163426 43.430178 -90.806450 82.199810 91.588944 -10.950310 -6.090492 15.081461 -21.569881 15.866958 -1.169138 8.682469 2.752181 -14.598396 
305.276703 92.546967 -271.845886 90.887804 5.651293 86.810113 -173.728525 -0.075299 -174.369156 -9.019901 -2.427736 -6.600707 74.791220 4.152586 -2.126243 21.454553 0.003089 -0.000001 -173.832372 2.034710 -179.506893 -11.263008 4.241949 7.780243 79.616510 -5.536460 0.242600 21.454560 -0.003107 -0.000016 6.649243 -0.190363 0.040733 3.285565 -0.381564 0.056772 2.967462 -0.381082 0.059083 6.473562 -7.548542 -8.798093 -16.497917 16.751734 -16.064629 -32.084663 -87.924813 -149.828286 -10.387140 9.270915 -15.475361 -24.073992 -17.011317 1.255189 17.268397 -0.025361 43.319454 -90.869772 82.175338 91.527438 -10.984659 -6.084251 15.062814 -21.552160 15.833318 -1.169132 8.685935 2.790807 -14.628129 
305.200897 92.543541 -271.770813 90.914244 5.604310 86.846593 -173.723567 -0.105694 -174.425314 -9.010615 -2.419105 -6.545345 74.801629 4.104576 -2.156983 21.454551 0.003088 0.000000 -173.834311 2.012223 -179.463043 -11.286650 4.247022 7.777866 79.676260 -5.541352 0.212316 21.454558 -0.003117 -0.000017 6.643460 -0.193995 0.040731 3.273993 -0.388982 0.064211 2.955888 -0.388443 0.066567 6.488742 -7.518542 -8.781070 -16.468097 16.682740 -16.012374 -32.242495 -87.909405 -149.672094 -10.392710 9.251361 -15.469368 -24.083732 -17.013057 1.256356 17.357910 0.122288 43.069510 -90.901799 82.150046 91.497440 -11.026102 -6.071578 15.009165 -21.533860 15.802138 -1.169138 8.697752 2.851958 -14.633813 
305.125092 92.539581 -271.697815 90.940772 5.561924 86.879364 -173.718294 -0.135499 -174.455995 -9.006734 -2.415688 -6.506842 74.813924 4.067653 -2.191045 21.454551 0.003093 -0.000002 -173.838355 1.991585 -179.393279 -11.322131 4.249441 7.757289 79.738975 -5.534235 0.178551 21.454555 -0.003120 -0.000019 6.637877 -0.197662 0.040743 3.262768 -0.396343 0.068504 2.944660 -0.395782 0.070898 6.500602 -7.497778 -8.762842 -16.426205 16.618627 -15.959801 -32.663105 -87.889740 -149.253867 -10.406541 9.237458 -15.454720 -24.074646 -16.991272 1.256994 17.399762 0.162094 42.937749 -90.912714 82.135484 91.487884 -11.063581 -6.051993 14.929161 -21.520692 15.779243 -1.169121 8.704017 2.957142 -14.578262 
305.049896 92.535049 -271.627686 90.968462 5.525299 86.911493 -173.713335 -0.161197 -174.423238 -9.008847 -2.418533 -6.506112 74.827823 4.055093 -2.233983 21.454553 0.003095 0.000000 -173.844037 1.974398 -179.297069 -11.370371 4.248743 7.720282 79.805044 -5.516171 0.142236 21.454558 -0.003105 -0.000018 6.632594 -0.201526 0.040743 3.252220 -0.403715 0.069332 2.934119 -0.403135 0.071771 6.511263 -7.491492 -8.744624 -16.367828 16.567262 -15.910782 -33.160118 -87.871736 -148.759102 -10.421840 9.227992 -15.439800 -24.053828 -16.953571 1.257447 17.400300 0.136025 42.899967 -90.926402 82.128667 91.474647 -11.100200 -6.024505 14.850950 -21.511770 15.771002 -1.169136 8.680102 3.074312 -14.489502 
304.976715 92.529503 -271.559998 90.997415 5.493120 86.936956 -173.711518 -0.183005 -174.371028 -9.021254 -2.425056 -6.520613 74.846668 4.052607 -2.279773 21.454553 0.003089 -0.000000 -173.858709 1.961102 -179.166435 -11.443545 4.241425 7.658676 79.879622 -5.481030 0.104426 21.454560 -0.003106 -0.000015 6.626901 -0.205507 0.040745 3.240838 -0.411633 0.070419 2.922737 -0.411051 0.072904 6.534834 -7.495713 -8.723571 -16.312739 16.531967 -15.866099 -33.627453 -87.857891 -148.294062 -10.433141 9.223498 -15.440790 -24.035292 -16.925991 1.257757 17.410410 0.122185 42.887581 -90.952377 82.141870 91.447415 -11.115012 -5.989718 14.792803 -21.517210 15.788498 -1.169136 8.637432 3.105289 -14.433417 
304.905487 92.524208 -271.493805 91.023814 5.463524 86.959687 -173.710835 -0.211198 -174.384415 -9.044729 -2.433765 -6.497351 74.871065 4.027251 -2.312534 21.454551 0.003095 -0.000001 -173.858258 1.954298 -179.107613 -11.483862 4.262832 7.636761 79.939878 -5.474967 0.063156 21.454558 -0.003108 -0.000018 6.620429 -0.208574 0.040740 3.227896 -0.418238 0.075739 2.909790 -0.417627 0.078273 6.571337 -7.500325 -8.707896 -16.265628 16.498025 -15.827749 -33.646437 -87.852058 -148.275293 -10.437850 9.225212 -15.458687 -24.018902 -16.926399 1.257924 17.445860 0.163157 42.875413 -90.993952 82.153420 91.404638 -11.111849 -5.950264 14.769651 -21.541471 15.838049 -1.169138 8.632019 3.041295 -14.424023 
